<svg width="285" height="76" viewBox="0 0 285 76" fill="none" xmlns="http://www.w3.org/2000/svg">
<path d="M87.6534 53H82.9943L93.4631 23.9091H98.5341L109.003 53H104.344L96.1193 29.1932H95.892L87.6534 53ZM88.4347 41.608H103.548V45.3011H88.4347V41.608ZM111.604 53V23.9091H115.851V34.7188H116.107C116.353 34.2642 116.708 33.7386 117.172 33.142C117.636 32.5455 118.28 32.0246 119.104 31.5795C119.928 31.125 121.017 30.8977 122.371 30.8977C124.132 30.8977 125.704 31.3428 127.087 32.233C128.469 33.1231 129.554 34.4062 130.34 36.0824C131.135 37.7585 131.533 39.7756 131.533 42.1335C131.533 44.4915 131.14 46.5133 130.354 48.1989C129.568 49.875 128.488 51.1676 127.115 52.0767C125.742 52.9763 124.175 53.4261 122.413 53.4261C121.088 53.4261 120.003 53.2036 119.161 52.7585C118.327 52.3134 117.674 51.7926 117.2 51.196C116.727 50.5994 116.362 50.0691 116.107 49.6051H115.752V53H111.604ZM115.766 42.0909C115.766 43.625 115.988 44.9697 116.433 46.125C116.878 47.2803 117.522 48.1847 118.365 48.8381C119.208 49.482 120.24 49.804 121.462 49.804C122.731 49.804 123.791 49.4678 124.644 48.7955C125.496 48.1136 126.14 47.1903 126.575 46.0256C127.021 44.8608 127.243 43.5492 127.243 42.0909C127.243 40.6515 127.025 39.3589 126.59 38.2131C126.163 37.0672 125.52 36.1629 124.658 35.5C123.806 34.8371 122.74 34.5057 121.462 34.5057C120.231 34.5057 119.189 34.8229 118.337 35.4574C117.494 36.0919 116.855 36.9773 116.419 38.1136C115.984 39.25 115.766 40.5758 115.766 42.0909ZM142.87 53.4261C141.108 53.4261 139.536 52.9763 138.154 52.0767C136.781 51.1676 135.701 49.875 134.915 48.1989C134.139 46.5133 133.75 44.4915 133.75 42.1335C133.75 39.7756 134.143 37.7585 134.929 36.0824C135.725 34.4062 136.814 33.1231 138.196 32.233C139.579 31.3428 141.146 30.8977 142.898 30.8977C144.252 30.8977 145.341 31.125 146.165 31.5795C146.998 32.0246 147.642 32.5455 148.097 33.142C148.561 33.7386 148.921 34.2642 149.176 34.7188H149.432V23.9091H153.679V53H149.532V49.6051H149.176C148.921 50.0691 148.551 50.5994 148.068 51.196C147.595 51.7926 146.942 52.3134 146.108 52.7585C145.275 53.2036 144.195 53.4261 142.87 53.4261ZM143.807 49.804C145.029 49.804 146.061 49.482 146.904 48.8381C147.756 48.1847 148.4 47.2803 148.836 46.125C149.281 44.9697 149.503 43.625 149.503 42.0909C149.503 40.5758 149.285 39.25 148.85 38.1136C148.414 36.9773 147.775 36.0919 146.932 35.4574C146.089 34.8229 145.048 34.5057 143.807 34.5057C142.529 34.5057 141.463 34.8371 140.611 35.5C139.759 36.1629 139.115 37.0672 138.679 38.2131C138.253 39.3589 138.04 40.6515 138.04 42.0909C138.04 43.5492 138.258 44.8608 138.693 46.0256C139.129 47.1903 139.773 48.1136 140.625 48.7955C141.487 49.4678 142.548 49.804 143.807 49.804ZM171.962 43.9517V31.1818H176.223V53H172.047V49.2216H171.82C171.318 50.3864 170.513 51.357 169.405 52.1335C168.307 52.9006 166.938 53.2841 165.3 53.2841C163.899 53.2841 162.658 52.9763 161.579 52.3608C160.508 51.7358 159.666 50.8125 159.05 49.5909C158.444 48.3693 158.141 46.8589 158.141 45.0597V31.1818H162.388V44.5483C162.388 46.035 162.8 47.2187 163.624 48.0994C164.448 48.9801 165.518 49.4205 166.834 49.4205C167.63 49.4205 168.42 49.2216 169.206 48.8239C170.002 48.4261 170.66 47.8248 171.181 47.0199C171.711 46.215 171.972 45.1922 171.962 43.9517ZM184.577 23.9091V53H180.33V23.9091H184.577Z" fill="#373737"/>
<path d="M200.523 53V23.9091H210.693C212.72 23.9091 214.391 24.2595 215.707 24.9602C217.024 25.6515 218.004 26.5843 218.648 27.7585C219.292 28.9233 219.614 30.2159 219.614 31.6364C219.614 32.8864 219.391 33.9186 218.946 34.733C218.51 35.5473 217.933 36.1913 217.213 36.6648C216.503 37.1383 215.731 37.4886 214.898 37.7159V38C215.788 38.0568 216.683 38.3693 217.582 38.9375C218.482 39.5057 219.235 40.3201 219.841 41.3807C220.447 42.4413 220.75 43.7386 220.75 45.2727C220.75 46.7311 220.419 48.0426 219.756 49.2074C219.093 50.3722 218.046 51.2955 216.616 51.9773C215.187 52.6591 213.326 53 211.034 53H200.523ZM204.045 49.875H211.034C213.335 49.875 214.969 49.4299 215.935 48.5398C216.91 47.6402 217.398 46.5511 217.398 45.2727C217.398 44.2879 217.147 43.3788 216.645 42.5455C216.143 41.7027 215.428 41.0303 214.5 40.5284C213.572 40.017 212.473 39.7614 211.205 39.7614H204.045V49.875ZM204.045 36.6932H210.58C211.64 36.6932 212.597 36.4848 213.449 36.0682C214.311 35.6515 214.992 35.0644 215.494 34.3068C216.006 33.5492 216.261 32.6591 216.261 31.6364C216.261 30.358 215.816 29.2737 214.926 28.3835C214.036 27.4839 212.625 27.0341 210.693 27.0341H204.045V36.6932ZM230.904 53.5114C229.522 53.5114 228.267 53.2509 227.14 52.7301C226.013 52.1998 225.118 51.4375 224.455 50.4432C223.793 49.4394 223.461 48.2273 223.461 46.8068C223.461 45.5568 223.707 44.5436 224.2 43.767C224.692 42.9811 225.35 42.3655 226.174 41.9205C226.998 41.4754 227.907 41.1439 228.901 40.9261C229.905 40.6989 230.914 40.5189 231.927 40.3864C233.253 40.2159 234.328 40.0881 235.151 40.0028C235.985 39.9081 236.591 39.7519 236.97 39.5341C237.358 39.3163 237.552 38.9375 237.552 38.3977V38.2841C237.552 36.8826 237.168 35.7936 236.401 35.017C235.644 34.2405 234.493 33.8523 232.95 33.8523C231.349 33.8523 230.095 34.2027 229.186 34.9034C228.276 35.6042 227.637 36.3523 227.268 37.1477L224.086 36.0114C224.654 34.6856 225.412 33.6534 226.359 32.9148C227.315 32.1667 228.357 31.6458 229.484 31.3523C230.62 31.0492 231.738 30.8977 232.836 30.8977C233.537 30.8977 234.342 30.983 235.251 31.1534C236.169 31.3144 237.055 31.6506 237.907 32.1619C238.769 32.6733 239.484 33.4451 240.052 34.4773C240.62 35.5095 240.904 36.892 240.904 38.625V53H237.552V50.0455H237.382C237.154 50.5189 236.775 51.0256 236.245 51.5653C235.715 52.1051 235.009 52.5644 234.129 52.9432C233.248 53.322 232.173 53.5114 230.904 53.5114ZM231.416 50.5C232.741 50.5 233.859 50.2396 234.768 49.7188C235.686 49.1979 236.378 48.5256 236.842 47.7017C237.315 46.8778 237.552 46.0114 237.552 45.1023V42.0341C237.41 42.2045 237.097 42.3608 236.614 42.5028C236.141 42.6354 235.592 42.7538 234.967 42.858C234.351 42.9527 233.75 43.0379 233.163 43.1136C232.585 43.1799 232.116 43.2367 231.757 43.2841C230.885 43.3977 230.071 43.5824 229.313 43.8381C228.565 44.0843 227.959 44.4583 227.495 44.9602C227.041 45.4527 226.813 46.125 226.813 46.9773C226.813 48.142 227.244 49.0227 228.106 49.6193C228.977 50.2064 230.08 50.5 231.416 50.5ZM260.877 36.0682L257.866 36.9205C257.677 36.4186 257.397 35.9309 257.028 35.4574C256.668 34.9744 256.176 34.5767 255.551 34.2642C254.926 33.9517 254.126 33.7955 253.15 33.7955C251.815 33.7955 250.702 34.1032 249.812 34.7188C248.931 35.3248 248.491 36.0966 248.491 37.0341C248.491 37.8674 248.794 38.5256 249.4 39.0085C250.006 39.4915 250.953 39.8939 252.241 40.2159L255.48 41.0114C257.43 41.4848 258.884 42.2093 259.84 43.1847C260.797 44.1506 261.275 45.3958 261.275 46.9205C261.275 48.1705 260.915 49.2879 260.196 50.2727C259.485 51.2576 258.491 52.0341 257.213 52.6023C255.934 53.1705 254.447 53.4545 252.752 53.4545C250.527 53.4545 248.685 52.9716 247.227 52.0057C245.769 51.0398 244.845 49.6288 244.457 47.7727L247.639 46.9773C247.942 48.1515 248.515 49.0322 249.358 49.6193C250.21 50.2064 251.322 50.5 252.696 50.5C254.258 50.5 255.499 50.1686 256.417 49.5057C257.345 48.8333 257.809 48.0284 257.809 47.0909C257.809 46.3333 257.544 45.6989 257.014 45.1875C256.483 44.6667 255.669 44.2784 254.571 44.0227L250.934 43.1705C248.936 42.697 247.468 41.9631 246.531 40.9688C245.603 39.965 245.139 38.7102 245.139 37.2045C245.139 35.9735 245.484 34.8845 246.176 33.9375C246.876 32.9905 247.828 32.2472 249.031 31.7074C250.243 31.1676 251.616 30.8977 253.15 30.8977C255.309 30.8977 257.004 31.3712 258.235 32.3182C259.476 33.2652 260.357 34.5152 260.877 36.0682ZM264.721 53V31.1818H268.074V53H264.721ZM266.426 27.5455C265.772 27.5455 265.209 27.3229 264.736 26.8778C264.271 26.4328 264.039 25.8977 264.039 25.2727C264.039 24.6477 264.271 24.1127 264.736 23.6676C265.209 23.2225 265.772 23 266.426 23C267.079 23 267.638 23.2225 268.102 23.6676C268.575 24.1127 268.812 24.6477 268.812 25.2727C268.812 25.8977 268.575 26.4328 268.102 26.8778C267.638 27.3229 267.079 27.5455 266.426 27.5455ZM282.102 31.1818V34.0227H270.795V31.1818H282.102ZM274.091 25.9545H277.443V46.75C277.443 47.697 277.58 48.4072 277.855 48.8807C278.139 49.3447 278.499 49.6572 278.935 49.8182C279.38 49.9697 279.848 50.0455 280.341 50.0455C280.71 50.0455 281.013 50.0265 281.25 49.9886C281.487 49.9413 281.676 49.9034 281.818 49.875L282.5 52.8864C282.273 52.9716 281.955 53.0568 281.548 53.142C281.141 53.2367 280.625 53.2841 280 53.2841C279.053 53.2841 278.125 53.0805 277.216 52.6733C276.316 52.2661 275.568 51.6458 274.971 50.8125C274.384 49.9792 274.091 48.928 274.091 47.6591V25.9545Z" fill="#373737"/>
<circle cx="38" cy="38" r="38" fill="#337CE5"/>
<path d="M27.7841 55H22.1932L34.7557 20.0909H40.8409L53.4034 55H47.8125L37.9432 26.4318H37.6705L27.7841 55ZM28.7216 41.3295H46.858V45.7614H28.7216V41.3295Z" fill="#E9DADA"/>
</svg>
